<svg width="500" height="400" viewBox="0 0 500 400" fill="none" xmlns="http://www.w3.org/2000/svg">
<rect width="500" height="400" fill="#F6F9FF"/>
<circle cx="128.137" cy="200.137" r="57.198" fill="white" stroke="#2375EF" stroke-width="1.81581"/>
<rect x="95.4529" y="181.072" width="65.0322" height="36.5778" rx="18.2889" fill="#2375EF"/>
<rect x="125.279" y="182.286" width="33.9925" height="34.1498" rx="16.9963" fill="white"/>
<path d="M221.867 222.847C217.109 222.847 212.94 221.805 209.36 219.721C205.826 217.636 203.039 214.759 201 211.088C199.006 207.372 198.009 203.09 198.009 198.241C198.009 193.393 199.006 189.133 201 185.463C203.039 181.747 205.826 178.847 209.36 176.762C212.94 174.678 217.109 173.636 221.867 173.636C226.58 173.636 230.726 174.678 234.306 176.762C237.886 178.847 240.673 181.747 242.666 185.463C244.66 189.133 245.657 193.393 245.657 198.241C245.657 203.09 244.66 207.372 242.666 211.088C240.673 214.759 237.886 217.636 234.306 219.721C230.726 221.805 226.58 222.847 221.867 222.847ZM221.867 215.03C226.398 215.03 230.001 213.535 232.675 210.544C235.393 207.554 236.753 203.453 236.753 198.241C236.753 193.03 235.393 188.929 232.675 185.939C230.001 182.948 226.398 181.452 221.867 181.452C217.336 181.452 213.71 182.948 210.992 185.939C208.273 188.929 206.913 193.03 206.913 198.241C206.913 203.453 208.273 207.554 210.992 210.544C213.71 213.535 217.336 215.03 221.867 215.03ZM268.157 222.032C264.622 222.032 261.79 221.171 259.66 219.449C257.531 217.727 256.466 214.668 256.466 210.272V195.591H250.688V188.318H256.466L257.485 179.277H265.166V188.318H274.274V195.591H265.166V210.34C265.166 211.972 265.506 213.105 266.186 213.739C266.911 214.328 268.134 214.623 269.856 214.623H274.07V222.032H268.157ZM281.744 222.032V173.092H290.445V193.483C291.578 191.626 293.096 190.175 294.999 189.133C296.947 188.046 299.168 187.502 301.66 187.502C305.829 187.502 309.046 188.816 311.312 191.444C313.623 194.072 314.779 197.924 314.779 202.999V222.032H306.146V203.815C306.146 200.915 305.557 198.695 304.379 197.154C303.246 195.613 301.434 194.843 298.941 194.843C296.494 194.843 294.455 195.704 292.824 197.426C291.238 199.148 290.445 201.549 290.445 204.631V222.032H281.744ZM339.479 222.847C336.081 222.847 333.067 222.122 330.439 220.672C327.811 219.222 325.749 217.183 324.254 214.555C322.758 211.926 322.011 208.89 322.011 205.446C322.011 201.957 322.736 198.853 324.186 196.134C325.681 193.415 327.72 191.308 330.303 189.813C332.932 188.272 336.013 187.502 339.547 187.502C342.855 187.502 345.778 188.227 348.316 189.677C350.853 191.127 352.825 193.121 354.229 195.659C355.679 198.151 356.404 200.938 356.404 204.019C356.404 204.517 356.382 205.039 356.336 205.582C356.336 206.126 356.314 206.693 356.268 207.282H330.643C330.824 209.91 331.731 211.972 333.362 213.467C335.039 214.962 337.055 215.71 339.411 215.71C341.179 215.71 342.651 215.325 343.83 214.555C345.053 213.739 345.959 212.697 346.549 211.428H355.385C354.75 213.558 353.686 215.506 352.19 217.274C350.74 218.995 348.928 220.355 346.752 221.352C344.623 222.349 342.198 222.847 339.479 222.847ZM339.547 194.571C337.418 194.571 335.537 195.183 333.906 196.406C332.274 197.584 331.232 199.397 330.779 201.844H347.568C347.432 199.624 346.617 197.856 345.121 196.542C343.626 195.228 341.768 194.571 339.547 194.571ZM363.722 222.032V188.318H371.403L372.083 194.027C373.125 192.033 374.62 190.447 376.569 189.269C378.563 188.091 380.896 187.502 383.57 187.502C387.739 187.502 390.979 188.816 393.29 191.444C395.601 194.072 396.756 197.924 396.756 202.999V222.032H388.056V203.815C388.056 200.915 387.467 198.695 386.289 197.154C385.11 195.613 383.275 194.843 380.783 194.843C378.336 194.843 376.319 195.704 374.733 197.426C373.193 199.148 372.422 201.549 372.422 204.631V222.032H363.722ZM420.098 222.032C416.563 222.032 413.731 221.171 411.601 219.449C409.471 217.727 408.407 214.668 408.407 210.272V195.591H402.629V188.318H408.407L409.426 179.277H417.107V188.318H426.215V195.591H417.107V210.34C417.107 211.972 417.447 213.105 418.127 213.739C418.852 214.328 420.075 214.623 421.797 214.623H426.011V222.032H420.098Z" fill="#2375EF"/>
</svg>
