<svg width="1216" height="973" viewBox="0 0 1216 973" fill="none" xmlns="http://www.w3.org/2000/svg">
<rect width="1216" height="972.8" fill="#F6F9FF"/>
<path d="M511.5 548.877C499.571 548.877 489.118 546.264 480.143 541.038C471.282 535.812 464.295 528.598 459.182 519.395C454.183 510.079 451.684 499.343 451.684 487.187C451.684 475.03 454.183 464.351 459.182 455.149C464.295 445.833 471.282 438.562 480.143 433.335C489.118 428.109 499.571 425.496 511.5 425.496C523.315 425.496 533.71 428.109 542.686 433.335C551.661 438.562 558.648 445.833 563.647 455.149C568.646 464.351 571.145 475.03 571.145 487.187C571.145 499.343 568.646 510.079 563.647 519.395C558.648 528.598 551.661 535.812 542.686 541.038C533.71 546.264 523.315 548.877 511.5 548.877ZM511.5 529.279C522.861 529.279 531.893 525.53 538.596 518.032C545.412 510.534 548.821 500.252 548.821 487.187C548.821 474.122 545.412 463.84 538.596 456.342C531.893 448.843 522.861 445.094 511.5 445.094C500.139 445.094 491.05 448.843 484.233 456.342C477.417 463.84 474.008 474.122 474.008 487.187C474.008 500.252 477.417 510.534 484.233 518.032C491.05 525.53 500.139 529.279 511.5 529.279ZM627.555 546.832C618.694 546.832 611.593 544.674 606.253 540.356C600.914 536.039 598.244 528.37 598.244 517.35V480.541H583.759V462.306H598.244L600.8 439.641H620.057V462.306H642.893V480.541H620.057V517.521C620.057 521.611 620.909 524.451 622.613 526.041C624.431 527.518 627.499 528.257 631.816 528.257H642.381V546.832H627.555ZM661.621 546.832V424.133H683.434V475.258C686.275 470.6 690.081 466.964 694.852 464.351C699.738 461.624 705.304 460.261 711.553 460.261C722.005 460.261 730.071 463.556 735.752 470.145C741.546 476.735 744.443 486.391 744.443 499.116V546.832H722.8V501.161C722.8 493.89 721.323 488.323 718.37 484.46C715.529 480.597 710.985 478.666 704.736 478.666C698.601 478.666 693.489 480.825 689.399 485.142C685.423 489.459 683.434 495.48 683.434 503.206V546.832H661.621ZM806.371 548.877C797.85 548.877 790.295 547.059 783.706 543.424C777.117 539.788 771.947 534.676 768.198 528.086C764.449 521.497 762.574 513.885 762.574 505.251C762.574 496.503 764.392 488.72 768.028 481.904C771.777 475.087 776.889 469.804 783.365 466.055C789.954 462.192 797.68 460.261 806.542 460.261C814.835 460.261 822.163 462.079 828.529 465.714C834.891 469.35 839.833 474.349 843.355 480.711C846.991 486.96 848.808 493.947 848.808 501.672C848.808 502.922 848.752 504.228 848.638 505.592C848.638 506.955 848.581 508.375 848.468 509.852H784.217C784.672 516.441 786.944 521.611 791.034 525.36C795.237 529.109 800.293 530.983 806.201 530.983C810.632 530.983 814.324 530.018 817.278 528.086C820.345 526.041 822.617 523.428 824.098 520.247H846.252C844.662 525.587 841.992 530.472 838.243 534.903C834.607 539.22 830.063 542.629 824.609 545.128C819.266 547.627 813.188 548.877 806.371 548.877ZM806.542 477.984C801.202 477.984 796.487 479.518 792.397 482.586C788.307 485.539 785.694 490.084 784.558 496.219H826.654C826.314 490.652 824.269 486.221 820.516 482.926C816.767 479.632 812.109 477.984 806.542 477.984ZM867.147 546.832V462.306H886.404L888.108 476.621C890.721 471.622 894.47 467.646 899.355 464.692C904.354 461.738 910.205 460.261 916.908 460.261C927.36 460.261 935.484 463.556 941.278 470.145C947.072 476.735 949.969 486.391 949.969 499.116V546.832H928.156V501.161C928.156 493.89 926.679 488.323 923.725 484.46C920.771 480.597 916.17 478.666 909.921 478.666C903.786 478.666 898.731 480.825 894.754 485.142C890.892 489.459 888.96 495.48 888.96 503.206V546.832H867.147ZM1008.5 546.832C999.635 546.832 992.535 544.674 987.195 540.356C981.855 536.039 979.186 528.37 979.186 517.35V480.541H964.7V462.306H979.186L981.742 439.641H1001V462.306H1023.83V480.541H1001V517.521C1001 521.611 1001.85 524.451 1003.55 526.041C1005.37 527.518 1008.44 528.257 1012.76 528.257H1023.32V546.832H1008.5Z" fill="#2375EF"/>
<circle cx="257.175" cy="486.175" r="137.917" fill="white" stroke="#2375EF" stroke-width="2.5152"/>
<path d="M220.461 440.482H293.996C319.329 440.482 339.865 461.018 339.865 486.351C339.865 511.684 319.329 532.22 293.996 532.22H220.461C195.128 532.22 174.592 511.684 174.592 486.351C174.592 461.018 195.128 440.482 220.461 440.482Z" fill="#2375EF" stroke="#2375EF" stroke-width="2.5152"/>
<path d="M294.484 443.591C317.83 443.591 336.756 462.516 336.756 485.862V486.839C336.756 510.185 317.83 529.111 294.485 529.111C271.139 529.111 252.213 510.185 252.213 486.839V485.862C252.213 462.516 271.138 443.591 294.484 443.591Z" fill="#F7F7FA" stroke="#2375EF" stroke-width="2.5152"/>
<path d="M1005.56 409.748L1007.65 405.188C1010.53 404.414 1013.35 403.626 1016.09 402.824C1018.86 402.038 1021.39 401.163 1023.69 400.199C1026.02 399.251 1028.01 398.202 1029.64 397.052C1031.32 395.885 1032.51 394.549 1033.19 393.046C1033.84 391.64 1034.01 390.219 1033.72 388.781C1033.47 387.358 1032.46 386.243 1030.69 385.435C1028.89 384.612 1027.27 384.579 1025.81 385.336C1024.36 386.094 1023.25 387.306 1022.49 388.973L1016.41 386.189C1017.63 383.703 1019.14 381.865 1020.95 380.677C1022.77 379.457 1024.74 378.835 1026.84 378.811C1028.97 378.754 1031.1 379.22 1033.26 380.207C1036.76 381.809 1039.03 384.015 1040.08 386.826C1041.17 389.62 1041.02 392.536 1039.63 395.576C1038.76 397.472 1037.47 399.116 1035.77 400.51C1034.09 401.918 1032.17 403.134 1030 404.157C1027.84 405.181 1025.6 406.053 1023.29 406.776C1021 407.466 1018.8 408.08 1016.69 408.618L1031.55 415.42L1029.19 420.568L1005.56 409.748ZM1036.79 424.464C1035.65 423.941 1034.87 423.147 1034.44 422.084C1034.05 421.036 1034.09 420.005 1034.56 418.992C1035.03 417.946 1035.8 417.228 1036.85 416.838C1037.93 416.463 1039.04 416.538 1040.18 417.062C1041.33 417.585 1042.09 418.372 1042.48 419.42C1042.91 420.483 1042.88 421.538 1042.4 422.583C1041.94 423.597 1041.16 424.291 1040.08 424.665C1039.03 425.055 1037.94 424.988 1036.79 424.464ZM1058.02 434.479C1054.85 433.027 1052.47 431.05 1050.89 428.546C1049.32 426.01 1048.52 423.134 1048.49 419.918C1048.51 416.685 1049.33 413.303 1050.95 409.773C1052.55 406.276 1054.57 403.464 1057 401.338C1059.47 399.227 1062.17 397.952 1065.1 397.514C1068.04 397.043 1071.1 397.534 1074.27 398.985C1077.44 400.437 1079.81 402.431 1081.38 404.967C1082.96 407.47 1083.74 410.339 1083.72 413.572C1083.74 416.821 1082.94 420.194 1081.34 423.691C1079.72 427.221 1077.68 430.041 1075.21 432.153C1072.79 434.246 1070.11 435.529 1067.17 435.999C1064.24 436.437 1061.19 435.931 1058.02 434.479ZM1060.6 428.841C1063.18 430.023 1065.78 429.91 1068.4 428.501C1071.03 427.093 1073.2 424.509 1074.92 420.75C1076.64 416.992 1077.18 413.66 1076.53 410.754C1075.88 407.849 1074.27 405.805 1071.69 404.623C1069.07 403.426 1066.46 403.532 1063.83 404.94C1061.24 406.364 1059.09 408.955 1057.37 412.714C1055.65 416.472 1055.09 419.797 1055.71 422.687C1056.35 425.593 1057.98 427.644 1060.6 428.841Z" fill="black"/>
</svg>
